<svg version="1.0" xmlns="http://www.w3.org/2000/svg" xmlns:xlink="http://www.w3.org/1999/xlink" width="180" height="50"
    viewBox="0, 0 ,180.000000, 50.000000" color-interpolation-filters="sRGB">
    <g>
        <g mask="url(#188f2668-c7f4-4fce-9516-d8ebbdcb1f01)">
            <svg version="1.1" id="Capa_1" xmlns="http://www.w3.org/2000/svg" xmlns:xlink="http://www.w3.org/1999/xlink"
                viewBox="0 0 70 70" xml:space="preserve">
                <g>
                    <g>
                        <path
                            d="M46.753,4.856c-4.946,3.732-9.637,7.884-13.949,12.351c-2.197,2.275-4.327,4.665-6.331,7.103L25.9,25.008l-0.752-0.5 C17.382,19.355,8.927,15.468,0,12.945v17.802c5.409,1.929,10.588,4.503,15.401,7.656l0.795,0.521l-0.479,0.82 C6.918,54.786,1.66,71.204,0.083,88.563h17.109c1.39-13.046,5.242-25.512,11.455-37.066l0.682-1.268l0.95,1.08 c9.286,10.557,15.271,23.422,17.34,37.254h17.115C62.372,69.04,53.492,50.586,39.656,36.491l-0.629-0.641l0.57-0.694 c2.02-2.461,4.188-4.862,6.446-7.137l0.71-0.715l0.71,0.715C63.656,44.331,73.88,65.801,76.314,88.562h17.104 c-2.437-26.7-14.028-52.003-32.717-71.357C56.391,12.741,51.701,8.589,46.753,4.856z">
                        </path>
                    </g>
                </g>
            </svg>
            <rect width="70" height="50" fill="url(#tcf7QVZ0SzAxEguD8xS0T)" style="pointer-events: none;"></rect>
        </g>
        <g transform="translate(70,50)">
            <g fill="url(#c14d6b81-c54b-49bd-9ab5-6be70a37c344)" class="tp-name iconsvg-namesvg">
                <g>
                    <g>
                        <path
                            d="M19.71-7.63L19.71-39.48 20.25-39.48 20.25-43.88 3.28-43.88 3.28-39.48 4.4-39.48 4.4-5.69 3.28-5.59 3.28-1.18 13.11-2.42 13.11 2.09 19.71 2.09 19.71-3.22 20.79-3.38 20.79-7.73 19.71-7.63ZM10.96-19.07L10.96-27.07 13.11-27.07 13.11-19.07 10.96-19.07ZM10.96-39.48L13.11-39.48 13.11-31.47 10.96-31.47 10.96-39.48ZM10.96-6.5L10.96-14.66 13.11-14.66 13.11-6.82 10.96-6.5ZM47.59-44.96L39.37-44.96Q38.24-44.96 37.44-44.15L37.44-44.15Q36.63-43.34 36.63-42.22L36.63-42.22 36.63 2.09 42.65 2.09 42.65-39.85Q42.65-40.61 43.4-40.61L43.4-40.61 43.56-40.61Q44.31-40.61 44.31-39.85L44.31-39.85 44.31-7.41Q44.31-6.66 43.56-6.66L43.56-6.66 43.24-6.66 44.31-2.31 47.59-2.31Q48.72-2.31 49.52-3.12L49.52-3.12Q50.33-3.92 50.33-5.05L50.33-5.05 50.33-42.22Q50.33-43.34 49.52-44.15L49.52-44.15Q48.72-44.96 47.59-44.96L47.59-44.96ZM27.88-44.96L24.06-44.96Q22.93-44.96 22.13-44.15L22.13-44.15Q21.32-43.34 21.32-42.22L21.32-42.22 21.32-10.47Q21.32-9.35 22.13-8.54L22.13-8.54Q22.93-7.73 24.06-7.73L24.06-7.73 27.77-7.73Q25.83-1.34 22.45 2.09L22.45 2.09 29.54 2.09Q35.02-3.38 35.02-15.42L35.02-15.42 35.02-38.4 29-38.4 29-16.49Q29-14.29 28.68-12.14L28.68-12.14 28.47-12.14Q27.34-12.14 27.34-13.21L27.34-13.21 27.34-39.48Q27.34-40.61 28.47-40.61L28.47-40.61 29.06-40.61Q32.82-40.61 35.56-41.68L35.56-41.68 35.56-46.03Q32.44-44.96 27.88-44.96L27.88-44.96ZM68.37-7.79L68.37 2.09 75.09 2.09 75.09-8.43 80.67-8.97 80.67-13.32 75.09-12.78 75.09-18.75 80.67-18.75 80.67-23.15 75.09-23.15 75.09-31.85 68.37-31.85 68.37-23.15 66.82-23.15Q66.33-23.15 66.06-23.53L66.06-23.53Q65.74-23.9 65.9-24.33L65.9-24.33 68.75-35.13 80.67-35.13 80.67-39.48 69.93-39.48 71.7-46.03 64.99-46.03 63.22-39.48 58.28-39.48 58.28-35.13 62.09-35.13 59.08-24.06Q58.87-23.15 58.87-22.18L58.87-22.18 58.87-21.16Q58.87-20.2 59.57-19.5L59.57-19.5Q60.26-18.75 61.23-18.75L61.23-18.75 68.37-18.75 68.37-12.14 58.28-11.12 58.28-6.77 68.37-7.79ZM91.47-46.03L84.92-46.03 81.64-24.22 88.19-24.22 89.86-35.13 99.26-35.13Q99.69-35.13 99.96-34.75L99.96-34.75Q100.28-34.43 100.22-34L100.22-34 98.72-24.22 104.74-24.22 106.24-34.32Q106.4-35.13 106.4-35.93L106.4-35.93 106.4-36.74Q106.4-37.87 105.6-38.67L105.6-38.67Q104.79-39.48 103.66-39.48L103.66-39.48 90.5-39.48 91.47-46.03ZM81.37 2.09L88.19 2.09 93.94-12.89 99.58 2.09 106.4 2.09 99.04-17.51 95.77-17.51 96.57-19.6Q97.38-21.22 97.38-22.99L97.38-22.99 97.38-31.69 90.83-31.69 90.83-23.31Q90.83-21.86 90.18-20.63L90.18-20.63 81.37 2.09Z">
                        </path>
                    </g>
                </g>
            </g>
        </g>
    </g>
    <defs>
        <linearGradient x1="0" y1="1" x2="0" y2="0" id="c14d6b81-c54b-49bd-9ab5-6be70a37c344">
            <stop offset="0%" stop-color="#6a12cb"></stop>
            <stop offset="100%" stop-color="#2575fc"></stop>
        </linearGradient>
        <filter id="42443b3f1de60f6b6fd3b6a9844b4764" filterUnits="objectBoundingBox">
            <feColorMatrix type="matrix" values="0 0 0 0 0.99609375  0 0 0 0 0.99609375  0 0 0 0 0.99609375  0 0 0 1 0">
            </feColorMatrix>
        </filter>
    </defs>
    <defs>
        <filter id="64ede823-1ee4-4fb3-839f-34068e114ae6" filterUnits="userSpaceOnUse">
            <feColorMatrix type="matrix" values="0 0 0 0 0.99609375  0 0 0 0 0.99609375  0 0 0 0 0.99609375  0 0 0 1 0">
            </feColorMatrix>
        </filter>
        <linearGradient x1="0" y1="1" x2="0" y2="0" id="tcf7QVZ0SzAxEguD8xS0T">
            <stop offset="0%" stop-color="#6a12cb"></stop>
            <stop offset="100%" stop-color="#2575fc"></stop>
        </linearGradient>
        <filter id="42443b3f1de60f6b6fd3b6a9844b4764" filterUnits="objectBoundingBox">
            <feColorMatrix type="matrix" values="0 0 0 0 0.99609375  0 0 0 0 0.99609375  0 0 0 0 0.99609375  0 0 0 1 0">
            </feColorMatrix>
        </filter>
    </defs>
    <mask id="188f2668-c7f4-4fce-9516-d8ebbdcb1f01">
        <g filter="url(#64ede823-1ee4-4fb3-839f-34068e114ae6)" class="iconsvg-imagesvg">
            <g>
                <rect fill="#6a12cb" fill-opacity="0" stroke-width="2" x="0" y="0" width="60"
                    height="53.762959113269595" class="image-rect"></rect> <svg x="0" y="0" width="60"
                    height="53.762959113269595" filtersec="colorsf3510101879" class="image-svg-svg primary"
                    style="overflow: visible;"><svg version="1.1" id="Capa_1" xmlns="http://www.w3.org/2000/svg"
                        xmlns:xlink="http://www.w3.org/1999/xlink" x="0px" y="0px"
                        viewBox="0 4.855999946594238 93.41799926757812 83.70700073242188" xml:space="preserve">
                        <g>
                            <g>
                                <path
                                    d="M46.753,4.856c-4.946,3.732-9.637,7.884-13.949,12.351c-2.197,2.275-4.327,4.665-6.331,7.103L25.9,25.008l-0.752-0.5 C17.382,19.355,8.927,15.468,0,12.945v17.802c5.409,1.929,10.588,4.503,15.401,7.656l0.795,0.521l-0.479,0.82 C6.918,54.786,1.66,71.204,0.083,88.563h17.109c1.39-13.046,5.242-25.512,11.455-37.066l0.682-1.268l0.95,1.08 c9.286,10.557,15.271,23.422,17.34,37.254h17.115C62.372,69.04,53.492,50.586,39.656,36.491l-0.629-0.641l0.57-0.694 c2.02-2.461,4.188-4.862,6.446-7.137l0.71-0.715l0.71,0.715C63.656,44.331,73.88,65.801,76.314,88.562h17.104 c-2.437-26.7-14.028-52.003-32.717-71.357C56.391,12.741,51.701,8.589,46.753,4.856z">
                                </path>
                            </g>
                        </g>
                    </svg></svg>
                <defs>
                    <filter id="colors6541233024">
                        <feColorMatrix type="matrix"
                            values="0 0 0 0 0  0 0 0 0 0.78515625  0 0 0 0 0.99609375  0 0 0 1 0"
                            class="icon-fecolormatrix"></feColorMatrix>
                    </filter>
                    <filter id="colorsf3510101879">
                        <feColorMatrix type="matrix"
                            values="0 0 0 0 0.99609375  0 0 0 0 0.99609375  0 0 0 0 0.99609375  0 0 0 1 0"
                            class="icon-fecolormatrix"></feColorMatrix>
                    </filter>
                    <filter id="colorsb2277804337">
                        <feColorMatrix type="matrix" values="0 0 0 0 0  0 0 0 0 0  0 0 0 0 0  0 0 0 1 0"
                            class="icon-fecolormatrix">
                        </feColorMatrix>
                    </filter>
                </defs>
            </g>
        </g>
    </mask>
</svg>